<?xml version="1.0" standalone="no"?><!-- Generator: Gravit.io --><svg xmlns="http://www.w3.org/2000/svg" xmlns:xlink="http://www.w3.org/1999/xlink" style="isolation:isolate" viewBox="0 0 306.142 90.709" width="306.142" height="90.709"><g><path d=" M 27.037 23.169 C 30.679 23.169 33.649 26.139 33.649 29.784 C 33.649 33.426 30.679 36.391 27.032 36.391 C 25.71 36.391 24.433 36.001 23.337 35.267 C 22.922 34.982 22.45 34.956 22.035 34.956 L 22.029 34.956 L 21.955 34.956 C 21.982 34.568 21.984 34.077 21.681 33.656 C 21.451 33.345 21.252 33.008 21.085 32.666 C 20.646 31.76 20.423 30.796 20.423 29.784 C 20.423 26.139 23.393 23.169 27.037 23.169 Z  M 27.032 21.098 C 22.248 21.098 18.349 24.994 18.349 29.784 C 18.349 31.109 18.64 32.385 19.217 33.571 C 19.408 33.967 19.636 34.357 19.891 34.725 C 19.888 34.787 19.882 34.868 19.879 34.946 C 19.843 35.421 19.798 36.072 20.279 36.552 C 20.723 36.999 21.302 37.037 21.809 37.037 L 22.035 37.037 C 22.131 37.037 22.206 37.039 22.262 37.039 C 23.681 37.971 25.331 38.467 27.032 38.467 C 31.826 38.467 35.72 34.571 35.72 29.784 C 35.72 24.994 31.826 21.098 27.032 21.098 Z " fill="rgb(98,105,108)"/><path d=" M 304.009 30.419 C 304.003 28.099 303.453 25.955 302.373 24.002 C 301.287 22.055 299.837 20.459 297.973 19.227 C 296.93 18.534 295.783 17.996 294.524 17.613 C 293.255 17.231 291.95 17.05 290.594 17.05 C 289.237 17.054 287.924 17.251 286.663 17.647 C 286.312 17.752 284.549 18.378 283.664 18.903 L 283.215 19.282 L 283.2 19.29 C 282.085 19.95 280.93 20.832 279.943 22.094 C 278.308 24.169 277.656 26.902 277.362 29.036 L 277.169 32.399 L 277.28 47.793 L 277.287 47.793 L 277.287 48.012 L 283.279 47.991 L 283.2 30.495 C 283.2 30.209 283.349 29.961 283.374 29.676 C 283.441 28.986 283.5 28.3 283.777 27.658 C 284.155 26.779 284.67 26.002 285.334 25.342 C 285.989 24.678 286.762 24.157 287.643 23.766 C 288.541 23.375 289.48 23.181 290.498 23.165 C 291.74 23.165 292.887 23.459 293.963 24.035 C 295.033 24.607 295.888 25.371 296.548 26.351 L 296.583 26.317 C 296.861 26.733 297.23 27.086 297.423 27.57 C 297.826 28.486 298.021 29.444 298.025 30.445 L 298.084 47.941 L 304.071 47.92 L 304.009 30.419 Z " fill="rgb(98,105,108)"/><path d=" M 81.381 19.538 C 82.691 20.391 83.824 21.463 84.751 22.753 L 81.401 25.438 L 80.122 26.485 C 79.457 25.523 78.591 24.754 77.525 24.174 C 76.457 23.602 75.304 23.312 74.067 23.316 C 73.06 23.328 72.117 23.518 71.219 23.904 C 70.333 24.304 69.562 24.816 68.9 25.489 C 68.251 26.14 67.728 26.922 67.343 27.818 C 66.954 28.712 66.771 29.663 66.771 30.671 L 66.814 41.703 L 66.831 47.92 L 60.84 47.941 L 60.786 38.076 L 60.734 32.554 C 60.734 32.554 60.43 26.179 63.508 22.236 C 65.644 19.517 68.595 18.428 70.157 17.933 C 71.391 17.533 72.69 17.332 74.045 17.332 C 75.398 17.319 76.702 17.516 77.946 17.899 C 79.18 18.294 80.32 18.84 81.381 19.538 Z " fill="rgb(0,169,224)"/><path d=" M 100.24 41.964 C 101.516 41.951 102.722 41.703 103.854 41.216 C 105.001 40.732 105.986 40.061 106.829 39.203 C 107.678 38.346 108.349 37.336 108.817 36.198 C 109.302 35.054 109.539 33.853 109.534 32.571 C 109.534 31.289 109.28 30.083 108.792 28.94 C 108.308 27.796 107.638 26.813 106.801 25.947 C 105.933 25.098 104.936 24.443 103.802 23.959 C 102.659 23.48 101.442 23.24 100.181 23.249 C 98.898 23.253 97.702 23.497 96.56 23.985 C 95.416 24.476 94.421 25.144 93.582 26.002 C 92.73 26.86 92.058 27.855 91.568 28.995 C 91.065 30.141 90.82 31.352 90.823 32.626 C 90.823 33.908 91.082 35.122 91.595 36.261 C 92.086 37.399 92.772 38.396 93.627 39.249 C 94.477 40.098 95.477 40.762 96.62 41.241 C 97.763 41.72 98.965 41.964 100.24 41.964 Z  M 100.122 17.264 C 102.264 17.251 104.246 17.647 106.116 18.428 C 107.98 19.214 109.614 20.303 111.006 21.69 C 112.402 23.085 113.506 24.707 114.299 26.565 C 115.104 28.431 115.509 30.419 115.522 32.545 C 115.522 34.672 115.135 36.677 114.35 38.53 C 113.559 40.397 112.472 42.027 111.083 43.426 C 109.691 44.822 108.06 45.928 106.213 46.721 C 104.354 47.537 102.363 47.941 100.23 47.941 C 98.099 47.944 96.107 47.562 94.243 46.763 C 92.378 45.982 90.744 44.893 89.351 43.494 C 87.961 42.111 86.858 40.493 86.045 38.631 C 85.249 36.774 84.844 34.782 84.844 32.65 C 84.833 30.524 85.216 28.528 86.008 26.666 C 86.792 24.804 87.887 23.165 89.272 21.77 C 90.662 20.366 92.29 19.265 94.145 18.474 C 96.008 17.672 97.992 17.268 100.122 17.264 Z " fill="rgb(0,169,224)"/><path d=" M 135.243 41.955 C 136.514 41.951 137.724 41.703 138.858 41.216 C 139.993 40.729 140.98 40.052 141.833 39.194 C 142.682 38.346 143.346 37.337 143.822 36.198 C 144.303 35.054 144.541 33.853 144.537 32.558 C 144.532 31.28 144.276 30.079 143.801 28.94 C 143.307 27.792 142.645 26.801 141.785 25.951 C 140.931 25.098 139.945 24.443 138.802 23.959 C 137.655 23.481 136.441 23.24 135.178 23.249 C 133.898 23.253 132.693 23.497 131.556 23.985 C 130.427 24.476 129.426 25.144 128.57 26.002 C 127.733 26.855 127.062 27.838 126.564 28.977 C 126.069 30.091 125.823 31.289 125.823 32.571 L 125.823 32.626 C 125.838 33.908 126.085 35.118 126.594 36.261 C 127.09 37.4 127.777 38.396 128.628 39.245 C 129.482 40.098 130.476 40.754 131.608 41.238 C 132.759 41.712 133.967 41.964 135.243 41.955 Z  M 135.121 17.256 C 137.251 17.247 139.253 17.646 141.117 18.428 C 142.982 19.21 144.599 20.303 146.003 21.69 C 147.405 23.085 148.511 24.708 149.307 26.565 C 150.105 28.427 150.509 30.419 150.513 32.546 C 150.525 34.668 150.133 36.676 149.353 38.531 C 148.559 40.396 147.47 42.027 146.085 43.427 C 144.696 44.826 143.067 45.928 141.208 46.722 C 139.353 47.525 137.367 47.941 135.227 47.941 C 133.109 47.944 131.103 47.562 129.251 46.764 C 127.381 45.982 125.744 44.893 124.356 43.494 C 122.955 42.107 121.851 40.493 121.052 38.631 C 120.247 36.774 119.844 34.782 119.829 32.651 L 119.829 32.6 L 119.707 4.648 L 125.692 4.626 L 125.718 20.492 C 127.037 19.479 128.482 18.681 130.064 18.118 C 131.662 17.558 133.342 17.264 135.121 17.256 Z " fill="rgb(0,169,224)"/><path d=" M 171.04 41.955 C 172.309 41.951 173.508 41.703 174.653 41.216 C 175.788 40.729 176.782 40.052 177.627 39.203 C 178.481 38.346 179.136 37.337 179.621 36.189 C 180.101 35.054 180.335 33.853 180.328 32.558 C 180.326 31.28 180.086 30.079 179.599 28.94 C 179.101 27.792 178.439 26.801 177.585 25.955 C 176.728 25.098 175.73 24.443 174.599 23.959 C 173.456 23.481 172.244 23.249 170.98 23.249 C 169.69 23.253 168.488 23.497 167.354 23.985 C 166.217 24.476 165.221 25.144 164.374 26.002 C 163.529 26.855 162.856 27.838 162.363 28.977 C 161.854 30.091 161.621 31.293 161.625 32.571 L 161.625 32.626 C 161.629 33.912 161.88 35.118 162.394 36.261 C 162.899 37.4 163.572 38.396 164.425 39.245 C 165.275 40.098 166.269 40.754 167.414 41.238 C 168.55 41.712 169.764 41.964 171.04 41.955 Z  M 170.915 17.256 C 173.056 17.247 175.051 17.646 176.911 18.428 C 178.77 19.21 180.405 20.303 181.799 21.69 C 183.196 23.085 184.299 24.708 185.1 26.565 C 185.894 28.427 186.316 30.419 186.316 32.546 C 186.316 34.668 185.93 36.676 185.144 38.531 C 184.354 40.396 183.27 42.027 181.877 43.427 C 180.485 44.826 178.863 45.928 177.016 46.722 C 175.156 47.525 173.162 47.941 171.024 47.941 C 168.906 47.944 166.902 47.554 165.044 46.764 C 163.178 45.982 161.545 44.893 160.154 43.494 C 158.752 42.107 157.647 40.493 156.847 38.631 C 156.039 36.774 155.649 34.782 155.636 32.651 L 155.636 32.6 L 155.507 4.648 L 161.499 4.626 L 161.525 20.492 C 162.829 19.479 164.277 18.681 165.871 18.118 C 167.45 17.558 169.138 17.264 170.915 17.256 Z " fill="rgb(0,169,224)"/><path d=" M 219.113 16.881 L 205.738 38.295 L 202.208 43.96 L 196.036 54.468 L 189.126 54.485 L 198.935 38.186 L 186.622 16.97 L 193.43 16.953 L 202.441 32.529 L 212.193 16.894 L 219.113 16.881 Z " fill="rgb(0,169,224)"/><path d=" M 237.362 33.609 C 237.912 34.395 238.333 35.231 238.654 36.143 C 238.972 37.046 239.096 38.018 239.06 39.014 C 239.032 40.291 238.742 41.472 238.203 42.561 C 237.669 43.649 236.948 44.6 236.063 45.415 C 235.189 46.239 234.138 46.873 232.942 47.315 C 231.741 47.764 230.475 47.969 229.154 47.941 C 227.298 47.865 225.625 47.39 224.134 46.499 C 222.629 45.621 221.499 44.444 220.718 42.969 L 225.711 39.459 C 225.886 40.166 226.333 40.754 226.983 41.238 C 227.645 41.712 228.426 41.964 229.311 41.955 C 230.326 41.994 231.207 41.703 231.955 41.111 C 232.71 40.502 233.082 39.757 233.071 38.863 C 233.071 38.593 233.049 38.396 233.023 38.282 L 233.023 38.165 C 232.981 38.085 232.974 38.022 232.974 37.964 C 232.974 37.905 232.942 37.841 232.896 37.758 C 232.621 37.101 232.117 36.559 231.386 36.139 C 231.268 36.064 231.098 35.992 230.86 35.912 L 230.911 35.849 C 230.375 35.542 229.784 35.236 229.127 34.958 C 228.452 34.668 227.782 34.357 227.1 34.025 C 226.426 33.706 225.762 33.365 225.094 32.991 C 224.439 32.626 223.818 32.192 223.239 31.697 L 223.239 31.638 L 223.059 31.457 C 222.244 30.693 221.594 29.784 221.135 28.764 C 220.655 27.733 220.444 26.645 220.481 25.489 C 220.523 24.312 220.779 23.24 221.286 22.219 C 221.784 21.219 222.446 20.345 223.285 19.613 C 224.104 18.861 225.077 18.281 226.216 17.849 C 227.332 17.42 228.531 17.218 229.808 17.256 C 231.471 17.327 232.981 17.735 234.319 18.458 C 235.653 19.189 236.719 20.181 237.486 21.417 L 232.621 24.804 C 232.388 24.367 232.003 24.018 231.496 23.698 C 230.965 23.4 230.375 23.24 229.715 23.249 C 228.82 23.203 228.055 23.422 227.42 23.888 C 226.786 24.358 226.477 24.914 226.477 25.578 C 226.477 25.775 226.481 25.909 226.527 25.981 C 226.594 26.418 226.794 26.779 227.109 27.082 C 227.42 27.397 227.813 27.645 228.279 27.834 C 229.015 28.267 229.864 28.704 230.808 29.133 C 231.757 29.574 232.726 30.07 233.688 30.608 C 234.398 30.915 235.082 31.357 235.784 31.928 L 236.08 32.227 C 236.473 32.571 236.891 33.042 237.362 33.609 Z " fill="rgb(98,105,108)"/><path d=" M 257.336 41.955 C 258.62 41.951 259.824 41.703 260.957 41.216 C 262.091 40.729 263.072 40.06 263.923 39.203 C 264.772 38.346 265.443 37.337 265.92 36.189 C 266.397 35.054 266.625 33.853 266.625 32.567 C 266.625 31.289 266.38 30.083 265.894 28.936 C 265.407 27.796 264.73 26.814 263.896 25.951 C 263.037 25.098 262.041 24.443 260.895 23.959 C 259.735 23.481 258.548 23.24 257.277 23.249 C 255.997 23.253 254.788 23.497 253.652 23.985 C 252.51 24.476 251.525 25.144 250.678 26.002 C 249.827 26.855 249.165 27.855 248.665 28.995 C 248.161 30.141 247.913 31.352 247.913 32.626 C 247.926 33.908 248.176 35.118 248.687 36.261 C 249.186 37.4 249.871 38.396 250.72 39.253 C 251.576 40.098 252.576 40.762 253.711 41.241 C 254.86 41.72 256.063 41.964 257.336 41.955 Z  M 257.22 17.264 C 259.362 17.251 261.349 17.646 263.21 18.428 C 265.073 19.214 266.702 20.303 268.095 21.69 C 269.507 23.085 270.602 24.708 271.402 26.565 C 272.201 28.431 272.613 30.419 272.613 32.546 C 272.613 34.672 272.237 36.676 271.445 38.527 C 270.658 40.396 269.564 42.027 268.174 43.427 C 266.788 44.826 265.164 45.928 263.309 46.722 C 261.451 47.532 259.458 47.941 257.334 47.941 C 255.194 47.944 253.202 47.554 251.34 46.764 C 249.485 45.982 247.848 44.893 246.446 43.494 C 245.043 42.112 243.954 40.493 243.149 38.631 C 242.342 36.774 241.939 34.782 241.939 32.651 C 241.928 30.524 242.313 28.528 243.112 26.666 C 243.889 24.804 244.981 23.165 246.372 21.77 C 247.755 20.366 249.385 19.265 251.242 18.474 C 253.099 17.663 255.087 17.268 257.22 17.264 Z " fill="rgb(98,105,108)"/><path d=" M 37.785 37.761 C 37.822 38.03 37.892 38.535 37.909 38.841 C 37.59 39.132 37.042 39.543 36.663 39.821 L 36.57 39.892 C 36.285 40.107 36.034 40.3 35.859 40.447 C 35.336 40.884 34.785 41.284 34.224 41.628 C 33.718 41.943 33.624 42.473 33.615 42.952 C 33.078 42.683 32.557 42.523 32.107 42.695 C 31.725 42.847 31.34 42.981 30.971 43.099 C 29.261 43.613 27.449 43.792 25.653 43.603 C 22.01 43.246 18.725 41.481 16.4 38.648 C 14.074 35.816 12.994 32.247 13.361 28.6 C 13.789 24.254 16.371 20.362 20.428 17.92 C 20.572 17.832 20.693 17.789 20.803 17.789 C 21.055 17.789 21.347 17.983 21.649 18.173 C 22.017 18.415 22.442 18.676 22.965 18.676 C 23.12 18.676 23.266 18.655 23.411 18.605 C 24.112 18.382 24.392 17.764 24.598 17.31 C 24.864 16.722 25.023 16.37 25.846 16.281 C 26.602 16.201 27.413 16.205 28.365 16.306 C 35.891 17.045 41.412 23.787 40.662 31.31 C 40.634 31.596 39.912 32.122 39.482 32.436 C 38.788 32.937 38.008 33.509 37.717 34.315 C 37.459 35.017 37.571 36.135 37.785 37.761 Z  M 37.654 41.426 L 37.785 41.33 C 38.432 40.837 39.166 40.3 39.531 39.867 C 39.895 39.439 39.835 38.95 39.649 37.513 C 39.569 36.908 39.357 35.286 39.477 34.958 C 39.573 34.697 40.132 34.294 40.588 33.954 C 41.447 33.327 42.426 32.617 42.532 31.495 C 42.941 27.355 41.715 23.304 39.071 20.076 C 36.426 16.848 32.691 14.847 28.553 14.431 C 27.481 14.327 26.541 14.323 25.649 14.415 C 23.761 14.612 23.21 15.81 22.886 16.533 C 22.856 16.592 22.835 16.646 22.817 16.684 C 22.751 16.646 22.687 16.609 22.648 16.583 C 22.208 16.302 21.597 15.911 20.803 15.911 C 20.348 15.911 19.894 16.041 19.458 16.306 C 14.881 19.063 11.982 23.476 11.488 28.414 C 11.077 32.562 12.306 36.618 14.947 39.842 C 17.588 43.066 21.325 45.066 25.47 45.474 C 25.99 45.532 26.511 45.557 27.032 45.557 C 28.553 45.557 30.059 45.327 31.506 44.893 C 31.862 44.788 32.219 44.667 32.575 44.532 C 32.697 44.59 32.85 44.67 32.96 44.725 C 33.566 45.053 34.264 45.327 34.793 45.069 C 35.532 44.708 35.51 43.855 35.498 43.292 C 35.491 43.225 35.491 43.142 35.491 43.053 C 36.037 42.695 36.568 42.304 37.069 41.88 C 37.209 41.762 37.422 41.602 37.654 41.426 Z " fill="rgb(98,105,108)"/><path d=" M 27.255 52.253 C 22.952 52.253 18.784 51.076 15.185 48.84 C 15.174 48.621 15.194 48.255 15.2 48.075 C 15.256 47.168 15.326 46.037 14.476 45.343 C 13.83 44.818 12.737 44.911 11.688 45.116 C 11.381 45.183 11.035 45.246 10.79 45.272 C 10.441 44.906 10.102 44.532 9.79 44.15 C 9.338 43.612 8.527 43.498 7.779 43.712 C 8.135 42.788 8.295 42.165 7.922 41.569 C 4.177 35.56 3.47 28.045 6.016 21.417 C 6.573 21.282 7.496 20.963 7.968 19.819 C 8.198 19.261 8.18 18.739 8.105 18.294 C 8.417 18.374 8.763 18.47 9.096 18.571 C 10.127 18.857 11.098 19.134 11.82 19.134 C 12.589 19.134 13.015 18.811 13.231 18.537 C 14.082 17.474 13.275 16.205 12.346 14.747 C 12.19 14.507 11.796 13.881 11.579 13.465 C 11.911 13.398 12.412 13.297 12.978 12.894 C 13.769 12.338 14.021 11.632 14.193 11.161 C 14.227 11.078 14.28 10.922 14.262 10.922 L 14.259 10.922 C 14.853 10.51 15.453 10.136 16.043 9.8 C 19.438 7.88 23.295 6.863 27.205 6.863 C 32.309 6.863 37.316 8.589 41.297 11.738 C 41.709 12.057 42.096 12.393 42.46 12.725 C 42.648 12.894 42.804 13.011 42.946 13.116 C 43.193 13.302 43.361 13.423 43.733 13.953 C 43.86 14.133 43.919 14.533 43.972 14.923 C 44.056 15.487 44.153 16.184 44.538 16.836 C 44.927 17.495 45.562 17.954 46.124 18.353 C 46.644 18.726 47.18 19.118 47.417 19.585 C 47.59 19.933 47.026 20.933 46.717 21.484 C 46.22 22.354 45.755 23.181 46.006 24.056 C 46.299 25.052 47.3 25.532 48.277 26.006 C 48.745 26.229 49.721 26.696 49.825 26.998 C 49.903 27.22 49.903 27.544 49.906 27.918 C 49.906 28.099 49.906 28.276 49.914 28.453 C 50.296 36.341 46.66 43.734 40.19 48.239 C 39.553 48.676 39.326 48.563 39.124 48.529 C 39.049 48.512 38.932 48.466 38.789 48.402 C 38.213 48.163 37.442 47.89 37.015 48.156 C 36.476 48.487 36.425 49.193 36.384 49.706 C 36.372 49.836 36.358 50.012 36.346 50.059 C 36.204 50.357 36.133 50.501 35.522 50.736 C 32.872 51.741 30.089 52.253 27.255 52.253 Z  M 52.347 27.91 C 52.347 27.423 52.342 26.821 52.139 26.216 C 51.707 24.943 50.39 24.309 49.331 23.804 C 49.159 23.72 48.724 23.514 48.472 23.371 C 48.578 23.148 48.749 22.85 48.843 22.673 C 49.447 21.61 50.362 19.996 49.593 18.483 C 49.095 17.487 48.24 16.874 47.549 16.377 C 47.185 16.116 46.769 15.81 46.639 15.591 C 46.504 15.356 46.441 14.961 46.389 14.575 C 46.304 13.97 46.194 13.204 45.727 12.544 C 45.132 11.704 44.749 11.414 44.399 11.157 C 44.305 11.082 44.21 11.014 44.098 10.918 C 43.705 10.552 43.271 10.187 42.813 9.821 C 38.397 6.337 32.85 4.416 27.205 4.416 C 22.876 4.416 18.597 5.542 14.84 7.678 C 14.198 8.035 13.537 8.455 12.87 8.917 C 12.26 9.346 12.042 9.939 11.897 10.342 C 11.778 10.67 11.73 10.791 11.567 10.901 C 11.42 11.006 11.318 11.027 11.093 11.073 C 10.681 11.157 9.989 11.292 9.361 12.078 C 8.467 13.196 9.353 14.588 10.315 16.1 C 10.377 16.201 10.45 16.311 10.522 16.429 C 10.259 16.36 9.994 16.285 9.753 16.218 C 8.785 15.94 7.868 15.688 7.21 15.688 C 6.324 15.688 5.923 16.151 5.759 16.432 C 5.35 17.159 5.516 17.895 5.633 18.391 C 5.674 18.559 5.733 18.815 5.714 18.886 C 5.674 18.979 5.668 19 5.311 19.072 C 4.966 19.139 4.248 19.278 3.944 20.021 C 0.946 27.343 1.575 35.727 5.63 42.489 C 5.553 42.708 5.433 43.011 5.323 43.3 C 4.844 44.499 4.535 45.292 5.027 45.999 C 5.323 46.423 5.802 46.662 6.36 46.662 C 6.87 46.662 7.388 46.461 7.886 46.268 C 8 46.226 8.137 46.167 8.26 46.125 C 8.567 46.474 8.885 46.815 9.214 47.15 C 9.573 47.525 10.077 47.714 10.711 47.714 C 11.19 47.714 11.712 47.604 12.19 47.508 C 12.386 47.466 12.594 47.419 12.789 47.394 C 12.784 47.604 12.777 47.836 12.764 47.941 C 12.714 48.857 12.646 50.118 13.649 50.756 C 17.694 53.328 22.395 54.691 27.255 54.691 C 30.386 54.691 33.462 54.127 36.394 53.014 C 37.917 52.433 38.313 51.598 38.551 51.101 C 38.588 51.021 38.614 50.963 38.709 50.95 C 38.786 50.95 38.86 50.958 38.94 50.963 C 39.575 51.005 40.41 51.051 41.579 50.24 C 48.749 45.259 52.774 37.068 52.351 28.335 C 52.347 28.195 52.347 28.048 52.347 27.91" fill="rgb(98,105,108)"/><path d=" M 224.211 62.04 C 224.564 62.04 224.884 61.984 225.173 61.871 C 225.461 61.758 225.706 61.601 225.908 61.398 C 226.11 61.196 226.267 60.954 226.379 60.674 C 226.491 60.394 226.547 60.09 226.547 59.762 L 226.547 59.743 C 226.547 59.415 226.491 59.109 226.379 58.826 C 226.267 58.542 226.11 58.3 225.908 58.097 C 225.706 57.894 225.461 57.735 225.173 57.619 C 224.884 57.503 224.564 57.445 224.211 57.445 L 222.885 57.445 L 222.885 62.04 L 224.211 62.04 Z  M 221.712 56.378 L 224.221 56.378 C 224.746 56.378 225.229 56.463 225.668 56.633 C 226.106 56.803 226.485 57.038 226.802 57.339 C 227.119 57.641 227.364 57.995 227.537 58.402 C 227.711 58.809 227.797 59.249 227.797 59.723 L 227.797 59.743 C 227.797 60.217 227.711 60.659 227.537 61.069 C 227.364 61.479 227.119 61.835 226.802 62.136 C 226.485 62.437 226.106 62.674 225.668 62.847 C 225.229 63.02 224.746 63.107 224.221 63.107 L 221.712 63.107 L 221.712 56.378 Z " fill="rgb(98,105,108)"/><path d=" M 236.381 60.435 L 235.218 57.743 L 234.064 60.435 L 236.381 60.435 Z  M 234.689 56.33 L 235.785 56.33 L 238.746 63.107 L 237.496 63.107 L 236.814 61.483 L 233.632 61.483 L 232.939 63.107 L 231.729 63.107 L 234.689 56.33 Z " fill="rgb(98,105,108)"/><path d=" M 244.628 57.474 L 242.494 57.474 L 242.494 56.378 L 247.954 56.378 L 247.954 57.474 L 245.82 57.474 L 245.82 63.107 L 244.628 63.107 L 244.628 57.474 Z " fill="rgb(98,105,108)"/><path d=" M 256.356 60.435 L 255.192 57.743 L 254.039 60.435 L 256.356 60.435 Z  M 254.664 56.33 L 255.76 56.33 L 258.72 63.107 L 257.471 63.107 L 256.788 61.483 L 253.606 61.483 L 252.914 63.107 L 251.703 63.107 L 254.664 56.33 Z " fill="rgb(98,105,108)"/><path d=" M 221.779 67.913 L 222.952 67.913 L 222.952 74.642 L 221.779 74.642 L 221.779 67.913 Z " fill="rgb(98,105,108)"/><path d=" M 227.835 67.913 L 229.094 67.913 L 231.142 71.095 L 233.189 67.913 L 234.448 67.913 L 234.448 74.642 L 233.276 74.642 L 233.276 69.816 L 231.151 72.989 L 231.113 72.989 L 229.008 69.836 L 229.008 74.642 L 227.835 74.642 L 227.835 67.913 Z " fill="rgb(98,105,108)"/><path d=" M 241.807 71.412 C 242.257 71.412 242.612 71.3 242.872 71.075 C 243.133 70.849 243.263 70.56 243.263 70.206 L 243.263 70.187 C 243.263 69.788 243.131 69.487 242.868 69.284 C 242.604 69.081 242.25 68.98 241.807 68.98 L 240.428 68.98 L 240.428 71.412 L 241.807 71.412 Z  M 239.255 67.913 L 241.907 67.913 C 242.299 67.913 242.653 67.966 242.97 68.072 C 243.287 68.177 243.556 68.33 243.778 68.528 C 243.999 68.727 244.168 68.964 244.287 69.24 C 244.405 69.515 244.464 69.823 244.464 70.162 L 244.464 70.182 C 244.464 70.56 244.394 70.892 244.253 71.177 C 244.111 71.462 243.919 71.7 243.675 71.893 C 243.431 72.085 243.145 72.231 242.817 72.33 C 242.489 72.43 242.139 72.479 241.767 72.479 L 240.428 72.479 L 240.428 74.642 L 239.255 74.642 L 239.255 67.913 Z " fill="rgb(98,105,108)"/><path d=" M 251.661 71.249 C 252.084 71.249 252.422 71.148 252.673 70.945 C 252.924 70.742 253.049 70.467 253.049 70.119 L 253.049 70.1 C 253.049 69.733 252.927 69.455 252.683 69.265 C 252.439 69.075 252.094 68.98 251.651 68.98 L 249.925 68.98 L 249.925 71.249 L 251.661 71.249 Z  M 248.752 67.913 L 251.751 67.913 C 252.174 67.913 252.549 67.973 252.876 68.091 C 253.203 68.209 253.475 68.375 253.693 68.586 C 253.872 68.772 254.01 68.987 254.106 69.23 C 254.202 69.474 254.251 69.743 254.251 70.038 L 254.251 70.057 C 254.251 70.332 254.21 70.58 254.13 70.802 C 254.05 71.023 253.94 71.219 253.799 71.388 C 253.657 71.558 253.489 71.703 253.294 71.821 C 253.098 71.939 252.882 72.03 252.645 72.095 L 254.462 74.642 L 253.068 74.642 L 251.41 72.297 L 251.39 72.297 L 249.925 72.297 L 249.925 74.642 L 248.752 74.642 L 248.752 67.913 Z " fill="rgb(98,105,108)"/><path d=" M 262.008 73.671 C 262.34 73.671 262.645 73.609 262.922 73.484 C 263.2 73.359 263.437 73.189 263.635 72.974 C 263.833 72.759 263.987 72.508 264.099 72.22 C 264.211 71.931 264.267 71.624 264.267 71.297 L 264.267 71.278 C 264.267 70.951 264.211 70.642 264.099 70.35 C 263.987 70.059 263.831 69.805 263.63 69.591 C 263.429 69.376 263.188 69.205 262.908 69.076 C 262.627 68.948 262.321 68.884 261.989 68.884 C 261.657 68.884 261.352 68.947 261.075 69.072 C 260.797 69.197 260.559 69.366 260.362 69.581 C 260.164 69.796 260.009 70.047 259.897 70.336 C 259.785 70.624 259.73 70.932 259.73 71.258 L 259.73 71.278 C 259.73 71.604 259.785 71.914 259.897 72.205 C 260.009 72.497 260.165 72.75 260.366 72.965 C 260.568 73.179 260.808 73.351 261.089 73.479 C 261.369 73.607 261.676 73.671 262.008 73.671 Z  M 261.989 74.757 C 261.47 74.757 260.995 74.666 260.566 74.483 C 260.136 74.301 259.768 74.052 259.46 73.738 C 259.153 73.425 258.913 73.058 258.74 72.638 C 258.566 72.218 258.48 71.771 258.48 71.297 L 258.48 71.278 C 258.48 70.803 258.566 70.356 258.74 69.937 C 258.913 69.517 259.156 69.148 259.47 68.831 C 259.784 68.514 260.156 68.263 260.585 68.077 C 261.014 67.891 261.489 67.798 262.008 67.798 C 262.527 67.798 263.001 67.889 263.431 68.072 C 263.86 68.254 264.228 68.503 264.536 68.817 C 264.844 69.131 265.084 69.498 265.257 69.917 C 265.43 70.337 265.517 70.784 265.517 71.258 L 265.517 71.278 C 265.517 71.752 265.43 72.199 265.257 72.619 C 265.084 73.038 264.84 73.407 264.526 73.724 C 264.212 74.041 263.841 74.293 263.411 74.479 C 262.982 74.665 262.508 74.757 261.989 74.757 Z " fill="rgb(98,105,108)"/><path d=" M 269.448 67.913 L 270.755 67.913 L 272.783 73.085 L 274.802 67.913 L 276.08 67.913 L 273.283 74.69 L 272.245 74.69 L 269.448 67.913 Z " fill="rgb(98,105,108)"/><path d=" M 280.377 67.913 L 281.55 67.913 L 281.55 74.642 L 280.377 74.642 L 280.377 67.913 Z " fill="rgb(98,105,108)"/><path d=" M 286.433 67.913 L 287.526 67.913 L 291.124 72.566 L 291.124 67.913 L 292.297 67.913 L 292.297 74.642 L 291.309 74.642 L 287.606 69.855 L 287.606 74.642 L 286.433 74.642 L 286.433 67.913 Z " fill="rgb(98,105,108)"/><path d=" M 300.294 74.757 C 299.769 74.757 299.291 74.669 298.862 74.493 C 298.432 74.317 298.066 74.073 297.761 73.763 C 297.457 73.452 297.221 73.086 297.054 72.667 C 296.888 72.247 296.805 71.791 296.805 71.297 L 296.805 71.278 C 296.805 70.81 296.89 70.364 297.061 69.942 C 297.233 69.518 297.473 69.148 297.782 68.831 C 298.092 68.514 298.459 68.263 298.886 68.077 C 299.312 67.891 299.778 67.798 300.285 67.798 C 300.579 67.798 300.847 67.819 301.087 67.861 C 301.327 67.902 301.55 67.961 301.755 68.038 C 301.96 68.115 302.154 68.21 302.337 68.322 C 302.52 68.434 302.697 68.564 302.87 68.711 L 302.12 69.605 C 301.992 69.496 301.861 69.397 301.726 69.307 C 301.592 69.217 301.451 69.142 301.304 69.081 C 301.156 69.02 300.994 68.972 300.818 68.937 C 300.641 68.902 300.448 68.884 300.237 68.884 C 299.929 68.884 299.642 68.948 299.376 69.077 C 299.11 69.205 298.879 69.377 298.684 69.592 C 298.488 69.807 298.334 70.059 298.223 70.348 C 298.11 70.637 298.054 70.942 298.054 71.263 L 298.054 71.283 C 298.054 71.629 298.109 71.95 298.217 72.246 C 298.326 72.541 298.481 72.795 298.683 73.007 C 298.884 73.218 299.123 73.386 299.401 73.508 C 299.679 73.629 299.991 73.69 300.336 73.69 C 300.656 73.69 300.955 73.644 301.233 73.55 C 301.511 73.457 301.752 73.333 301.957 73.178 L 301.957 71.912 L 300.237 71.912 L 300.237 70.883 L 303.101 70.883 L 303.101 73.709 C 302.934 73.851 302.75 73.985 302.548 74.114 C 302.347 74.241 302.128 74.353 301.894 74.45 C 301.66 74.546 301.409 74.622 301.14 74.675 C 300.871 74.73 300.589 74.757 300.294 74.757 Z " fill="rgb(98,105,108)"/><path d=" M 224.264 82.947 C 224.714 82.947 225.07 82.835 225.33 82.61 C 225.59 82.385 225.721 82.095 225.721 81.741 L 225.721 81.722 C 225.721 81.323 225.589 81.022 225.325 80.819 C 225.061 80.617 224.708 80.515 224.264 80.515 L 222.885 80.515 L 222.885 82.947 L 224.264 82.947 Z  M 221.712 79.448 L 224.365 79.448 C 224.756 79.448 225.11 79.501 225.427 79.607 C 225.745 79.713 226.013 79.865 226.235 80.063 C 226.456 80.262 226.626 80.499 226.744 80.775 C 226.863 81.051 226.922 81.358 226.922 81.698 L 226.922 81.717 C 226.922 82.095 226.851 82.427 226.71 82.712 C 226.569 82.997 226.376 83.236 226.132 83.428 C 225.888 83.62 225.602 83.766 225.274 83.865 C 224.947 83.965 224.596 84.015 224.224 84.015 L 222.885 84.015 L 222.885 86.177 L 221.712 86.177 L 221.712 79.448 Z " fill="rgb(98,105,108)"/><path d=" M 231.209 79.448 L 236.189 79.448 L 236.189 80.515 L 232.382 80.515 L 232.382 82.246 L 235.756 82.246 L 235.756 83.313 L 232.382 83.313 L 232.382 85.11 L 236.237 85.11 L 236.237 86.177 L 231.209 86.177 L 231.209 79.448 Z " fill="rgb(98,105,108)"/><path d=" M 243.956 85.206 C 244.287 85.206 244.592 85.144 244.87 85.019 C 245.147 84.894 245.384 84.724 245.582 84.509 C 245.78 84.295 245.935 84.043 246.047 83.755 C 246.159 83.466 246.214 83.159 246.214 82.832 L 246.214 82.813 C 246.214 82.486 246.159 82.177 246.047 81.885 C 245.935 81.594 245.779 81.341 245.578 81.126 C 245.377 80.911 245.136 80.74 244.855 80.612 C 244.574 80.484 244.268 80.419 243.936 80.419 C 243.604 80.419 243.3 80.482 243.022 80.607 C 242.745 80.732 242.507 80.901 242.309 81.116 C 242.111 81.331 241.956 81.582 241.845 81.871 C 241.733 82.159 241.677 82.467 241.677 82.794 L 241.677 82.813 C 241.677 83.14 241.733 83.449 241.845 83.74 C 241.956 84.032 242.113 84.285 242.314 84.5 C 242.515 84.715 242.756 84.886 243.037 85.014 C 243.317 85.142 243.624 85.206 243.956 85.206 Z  M 243.936 86.293 C 243.417 86.293 242.943 86.201 242.514 86.019 C 242.084 85.836 241.715 85.587 241.408 85.274 C 241.1 84.96 240.86 84.593 240.687 84.173 C 240.514 83.753 240.428 83.306 240.428 82.832 L 240.428 82.813 C 240.428 82.338 240.514 81.891 240.687 81.472 C 240.86 81.052 241.104 80.684 241.418 80.366 C 241.732 80.049 242.103 79.798 242.532 79.612 C 242.962 79.426 243.436 79.333 243.956 79.333 C 244.475 79.333 244.949 79.424 245.378 79.607 C 245.807 79.79 246.176 80.038 246.484 80.352 C 246.791 80.666 247.032 81.033 247.205 81.453 C 247.378 81.872 247.464 82.319 247.464 82.794 L 247.464 82.813 C 247.464 83.287 247.378 83.734 247.205 84.154 C 247.032 84.573 246.788 84.942 246.474 85.259 C 246.16 85.576 245.788 85.828 245.359 86.014 C 244.93 86.2 244.455 86.293 243.936 86.293 Z " fill="rgb(98,105,108)"/><path d=" M 254.524 82.947 C 254.974 82.947 255.33 82.835 255.59 82.61 C 255.851 82.385 255.98 82.095 255.98 81.741 L 255.98 81.722 C 255.98 81.323 255.849 81.022 255.585 80.819 C 255.322 80.617 254.968 80.515 254.524 80.515 L 253.145 80.515 L 253.145 82.947 L 254.524 82.947 Z  M 251.972 79.448 L 254.625 79.448 C 255.016 79.448 255.37 79.501 255.687 79.607 C 256.005 79.713 256.274 79.865 256.495 80.063 C 256.716 80.262 256.886 80.499 257.005 80.775 C 257.123 81.051 257.182 81.358 257.182 81.698 L 257.182 81.717 C 257.182 82.095 257.111 82.427 256.97 82.712 C 256.829 82.997 256.636 83.236 256.392 83.428 C 256.148 83.62 255.862 83.766 255.535 83.865 C 255.207 83.965 254.857 84.015 254.485 84.015 L 253.145 84.015 L 253.145 86.177 L 251.972 86.177 L 251.972 79.448 Z " fill="rgb(98,105,108)"/><path d=" M 261.47 79.448 L 262.642 79.448 L 262.642 85.11 L 266.18 85.11 L 266.18 86.177 L 261.47 86.177 L 261.47 79.448 Z " fill="rgb(98,105,108)"/><path d=" M 270.495 79.448 L 275.475 79.448 L 275.475 80.515 L 271.668 80.515 L 271.668 82.246 L 275.042 82.246 L 275.042 83.313 L 271.668 83.313 L 271.668 85.11 L 275.523 85.11 L 275.523 86.177 L 270.495 86.177 L 270.495 79.448 Z " fill="rgb(98,105,108)"/></g></svg>